<mxfile host="app.diagrams.net" modified="2020-12-14T08:34:29.380Z" agent="5.0 (Windows NT 10.0; Win64; x64) AppleWebKit/537.36 (KHTML, like Gecko) Chrome/86.0.4240.198 Safari/537.36" etag="W3UzthEmQIOJhnPuBH3z" version="14.0.1" type="github">
  <diagram name="Page-1" id="2c0d36ab-eaac-3732-788b-9136903baeff">
    <mxGraphModel dx="1185" dy="1875.5" grid="1" gridSize="10" guides="1" tooltips="1" connect="1" arrows="1" fold="1" page="1" pageScale="1.5" pageWidth="1169" pageHeight="827" background="#ffffff" math="0" shadow="0">
      <root>
        <mxCell id="0" />
        <mxCell id="1" parent="0" />
        <mxCell id="aeSo5eEHInbTSxdWZxCx-129" value="" style="group" vertex="1" connectable="0" parent="1">
          <mxGeometry x="717" y="-870" width="210" height="100" as="geometry" />
        </mxCell>
        <mxCell id="aeSo5eEHInbTSxdWZxCx-125" value="" style="fillColor=#AE4132;strokeColor=none;opacity=30;" vertex="1" parent="aeSo5eEHInbTSxdWZxCx-129">
          <mxGeometry width="210" height="99.99999999999994" as="geometry" />
        </mxCell>
        <mxCell id="aeSo5eEHInbTSxdWZxCx-126" value="PMC" style="rounded=1;fillColor=#23445D;gradientColor=none;strokeColor=none;fontColor=#FFFFFF;fontStyle=1;fontFamily=Tahoma;fontSize=14" vertex="1" parent="aeSo5eEHInbTSxdWZxCx-129">
          <mxGeometry x="10" y="10" width="190" height="80" as="geometry" />
        </mxCell>
        <mxCell id="aeSo5eEHInbTSxdWZxCx-130" style="edgeStyle=orthogonalEdgeStyle;rounded=0;orthogonalLoop=1;jettySize=auto;html=1;" edge="1" parent="1" source="aeSo5eEHInbTSxdWZxCx-126" target="aeSo5eEHInbTSxdWZxCx-137">
          <mxGeometry relative="1" as="geometry">
            <mxPoint x="862" y="-670" as="targetPoint" />
            <Array as="points">
              <mxPoint x="822" y="-710" />
              <mxPoint x="492" y="-710" />
            </Array>
          </mxGeometry>
        </mxCell>
        <mxCell id="aeSo5eEHInbTSxdWZxCx-136" value="" style="fillColor=#10739E;strokeColor=none;opacity=30;" vertex="1" parent="1">
          <mxGeometry x="360" y="-640" width="920" height="100" as="geometry" />
        </mxCell>
        <mxCell id="aeSo5eEHInbTSxdWZxCx-159" style="edgeStyle=orthogonalEdgeStyle;rounded=0;orthogonalLoop=1;jettySize=auto;html=1;" edge="1" parent="1" source="aeSo5eEHInbTSxdWZxCx-137" target="aeSo5eEHInbTSxdWZxCx-146">
          <mxGeometry relative="1" as="geometry">
            <Array as="points">
              <mxPoint x="492" y="-470" />
            </Array>
          </mxGeometry>
        </mxCell>
        <mxCell id="aeSo5eEHInbTSxdWZxCx-160" style="edgeStyle=orthogonalEdgeStyle;rounded=0;orthogonalLoop=1;jettySize=auto;html=1;" edge="1" parent="1" source="aeSo5eEHInbTSxdWZxCx-137" target="aeSo5eEHInbTSxdWZxCx-148">
          <mxGeometry relative="1" as="geometry">
            <Array as="points">
              <mxPoint x="492" y="-390" />
            </Array>
          </mxGeometry>
        </mxCell>
        <mxCell id="aeSo5eEHInbTSxdWZxCx-161" style="edgeStyle=orthogonalEdgeStyle;rounded=0;orthogonalLoop=1;jettySize=auto;html=1;entryX=0;entryY=0.5;entryDx=0;entryDy=0;" edge="1" parent="1" target="aeSo5eEHInbTSxdWZxCx-154">
          <mxGeometry relative="1" as="geometry">
            <mxPoint x="492.02857142857147" y="-551" as="sourcePoint" />
            <mxPoint x="572" y="-469.98571428571427" as="targetPoint" />
            <Array as="points">
              <mxPoint x="492" y="-469" />
            </Array>
          </mxGeometry>
        </mxCell>
        <mxCell id="aeSo5eEHInbTSxdWZxCx-165" style="edgeStyle=orthogonalEdgeStyle;rounded=0;orthogonalLoop=1;jettySize=auto;html=1;entryX=0;entryY=0.5;entryDx=0;entryDy=0;" edge="1" parent="1" target="aeSo5eEHInbTSxdWZxCx-156">
          <mxGeometry relative="1" as="geometry">
            <mxPoint x="492.02857142857147" y="-551" as="sourcePoint" />
            <mxPoint x="572" y="-389.98571428571427" as="targetPoint" />
            <Array as="points">
              <mxPoint x="492" y="-389" />
            </Array>
          </mxGeometry>
        </mxCell>
        <mxCell id="aeSo5eEHInbTSxdWZxCx-166" style="edgeStyle=orthogonalEdgeStyle;rounded=0;orthogonalLoop=1;jettySize=auto;html=1;" edge="1" parent="1" source="aeSo5eEHInbTSxdWZxCx-137" target="aeSo5eEHInbTSxdWZxCx-150">
          <mxGeometry relative="1" as="geometry">
            <Array as="points">
              <mxPoint x="492" y="-310" />
            </Array>
          </mxGeometry>
        </mxCell>
        <mxCell id="aeSo5eEHInbTSxdWZxCx-167" style="edgeStyle=orthogonalEdgeStyle;rounded=0;orthogonalLoop=1;jettySize=auto;html=1;" edge="1" parent="1" source="aeSo5eEHInbTSxdWZxCx-137" target="aeSo5eEHInbTSxdWZxCx-152">
          <mxGeometry relative="1" as="geometry">
            <Array as="points">
              <mxPoint x="492" y="-230" />
            </Array>
          </mxGeometry>
        </mxCell>
        <mxCell id="aeSo5eEHInbTSxdWZxCx-168" style="edgeStyle=orthogonalEdgeStyle;rounded=0;orthogonalLoop=1;jettySize=auto;html=1;" edge="1" parent="1" source="aeSo5eEHInbTSxdWZxCx-137" target="aeSo5eEHInbTSxdWZxCx-158">
          <mxGeometry relative="1" as="geometry">
            <Array as="points">
              <mxPoint x="492" y="-310" />
            </Array>
          </mxGeometry>
        </mxCell>
        <mxCell id="aeSo5eEHInbTSxdWZxCx-137" value="SG1 对照计划监督项目" style="rounded=1;fillColor=#23445D;gradientColor=none;strokeColor=none;fontColor=#FFFFFF;fontStyle=1;fontFamily=Tahoma;fontSize=14" vertex="1" parent="1">
          <mxGeometry x="401" y="-630" width="190" height="80" as="geometry" />
        </mxCell>
        <mxCell id="aeSo5eEHInbTSxdWZxCx-140" value="SG2" style="rounded=1;fillColor=#23445D;gradientColor=none;strokeColor=none;fontColor=#FFFFFF;fontStyle=1;fontFamily=Tahoma;fontSize=14" vertex="1" parent="1">
          <mxGeometry x="1049.9999999999998" y="-630" width="190" height="80" as="geometry" />
        </mxCell>
        <mxCell id="aeSo5eEHInbTSxdWZxCx-141" style="edgeStyle=orthogonalEdgeStyle;rounded=0;orthogonalLoop=1;jettySize=auto;html=1;" edge="1" parent="1" source="aeSo5eEHInbTSxdWZxCx-126" target="aeSo5eEHInbTSxdWZxCx-140">
          <mxGeometry relative="1" as="geometry">
            <Array as="points">
              <mxPoint x="822" y="-710" />
              <mxPoint x="1145" y="-710" />
            </Array>
          </mxGeometry>
        </mxCell>
        <mxCell id="aeSo5eEHInbTSxdWZxCx-145" value="" style="fillColor=#12AAB5;strokeColor=none;opacity=30;" vertex="1" parent="1">
          <mxGeometry x="199" y="-500" width="240" height="60" as="geometry" />
        </mxCell>
        <mxCell id="aeSo5eEHInbTSxdWZxCx-146" value="SP1.1 监督项目策划参数 " style="rounded=1;fillColor=#23445D;gradientColor=none;strokeColor=none;fontColor=#FFFFFF;fontStyle=1;fontFamily=Tahoma;fontSize=14" vertex="1" parent="1">
          <mxGeometry x="209" y="-490" width="220" height="40" as="geometry" />
        </mxCell>
        <mxCell id="aeSo5eEHInbTSxdWZxCx-147" value="" style="fillColor=#12AAB5;strokeColor=none;opacity=30;" vertex="1" parent="1">
          <mxGeometry x="199" y="-420" width="240" height="60" as="geometry" />
        </mxCell>
        <mxCell id="aeSo5eEHInbTSxdWZxCx-148" value="SP1.2 监督承诺 " style="rounded=1;fillColor=#23445D;gradientColor=none;strokeColor=none;fontColor=#FFFFFF;fontStyle=1;fontFamily=Tahoma;fontSize=14" vertex="1" parent="1">
          <mxGeometry x="209" y="-410" width="220" height="40" as="geometry" />
        </mxCell>
        <mxCell id="aeSo5eEHInbTSxdWZxCx-149" value="" style="fillColor=#12AAB5;strokeColor=none;opacity=30;" vertex="1" parent="1">
          <mxGeometry x="199" y="-340" width="240" height="60" as="geometry" />
        </mxCell>
        <mxCell id="aeSo5eEHInbTSxdWZxCx-150" value="SP1.3 监督项目风险 " style="rounded=1;fillColor=#23445D;gradientColor=none;strokeColor=none;fontColor=#FFFFFF;fontStyle=1;fontFamily=Tahoma;fontSize=14" vertex="1" parent="1">
          <mxGeometry x="209" y="-330" width="220" height="40" as="geometry" />
        </mxCell>
        <mxCell id="aeSo5eEHInbTSxdWZxCx-151" value="" style="fillColor=#12AAB5;strokeColor=none;opacity=30;" vertex="1" parent="1">
          <mxGeometry x="199" y="-260" width="240" height="60" as="geometry" />
        </mxCell>
        <mxCell id="aeSo5eEHInbTSxdWZxCx-152" value="SP1.4 监督数据管理 " style="rounded=1;fillColor=#23445D;gradientColor=none;strokeColor=none;fontColor=#FFFFFF;fontStyle=1;fontFamily=Tahoma;fontSize=14" vertex="1" parent="1">
          <mxGeometry x="209" y="-250" width="220" height="40" as="geometry" />
        </mxCell>
        <mxCell id="aeSo5eEHInbTSxdWZxCx-153" value="" style="fillColor=#12AAB5;strokeColor=none;opacity=30;" vertex="1" parent="1">
          <mxGeometry x="548" y="-499.5" width="240" height="60" as="geometry" />
        </mxCell>
        <mxCell id="aeSo5eEHInbTSxdWZxCx-154" value="SP1.5 监督利益相关方的参与 " style="rounded=1;fillColor=#23445D;gradientColor=none;strokeColor=none;fontColor=#FFFFFF;fontStyle=1;fontFamily=Tahoma;fontSize=14" vertex="1" parent="1">
          <mxGeometry x="558" y="-489.5" width="220" height="40" as="geometry" />
        </mxCell>
        <mxCell id="aeSo5eEHInbTSxdWZxCx-155" value="" style="fillColor=#12AAB5;strokeColor=none;opacity=30;" vertex="1" parent="1">
          <mxGeometry x="548" y="-419.5" width="240" height="60" as="geometry" />
        </mxCell>
        <mxCell id="aeSo5eEHInbTSxdWZxCx-156" value="SP1.6 实施进展评审 " style="rounded=1;fillColor=#23445D;gradientColor=none;strokeColor=none;fontColor=#FFFFFF;fontStyle=1;fontFamily=Tahoma;fontSize=14" vertex="1" parent="1">
          <mxGeometry x="558" y="-409.5" width="220" height="40" as="geometry" />
        </mxCell>
        <mxCell id="aeSo5eEHInbTSxdWZxCx-157" value="" style="fillColor=#12AAB5;strokeColor=none;opacity=30;" vertex="1" parent="1">
          <mxGeometry x="548" y="-340" width="240" height="60" as="geometry" />
        </mxCell>
        <mxCell id="aeSo5eEHInbTSxdWZxCx-158" value="SP1.7 实施里程碑评审 " style="rounded=1;fillColor=#23445D;gradientColor=none;strokeColor=none;fontColor=#FFFFFF;fontStyle=1;fontFamily=Tahoma;fontSize=14" vertex="1" parent="1">
          <mxGeometry x="558" y="-330" width="220" height="40" as="geometry" />
        </mxCell>
      </root>
    </mxGraphModel>
  </diagram>
</mxfile>
